<svg id="Layer_1" data-name="Layer 1" xmlns="http://www.w3.org/2000/svg" viewBox="0 0 50 50"><title>edsm</title><polygon points="5.78 35.06 5.78 38.09 11.76 38.09 11.76 40.07 5.78 40.07 5.78 43.1 11.76 43.1 11.76 45.08 3.77 45.08 3.77 33.09 11.76 33.09 11.76 35.06 5.78 35.06"/><path d="M19,33.09H13.42v12H19C24.84,45.08,24.84,33.09,19,33.09Zm-.11,10H15.5V35h3.34C22,35,22,43.1,18.84,43.1Z"/><path d="M33.42,36.3c-.49-2.06-2-3.35-4.73-3.35s-4.48,1.28-4.48,3.45,1.54,3.43,4,3.58c2.13.31,3.22,1,3.22,2.18,0,.56-1,1.17-2.64,1.17a3,3,0,0,1-3-1.66H23.88c0,2.06,1.37,3.43,5,3.73,2.89-.06,4.6-1.11,5.06-3.19.16-2.19-1.2-3.5-4.09-3.91-2.13-.26-3.47-.86-3.3-2.07A2.55,2.55,0,0,1,29.35,35a3,3,0,0,1,2.07,1.49h2Z"/><polygon points="46.17 33.09 46.17 45.41 43.93 45.41 43.93 37.98 41.34 42.34 39.71 42.34 37.13 37.98 37.13 45.41 34.87 45.41 34.87 33.09 36.85 33.09 40.53 39.25 44.21 33.09 46.17 33.09"/><path d="M28.25,30.83c-3.37,0-4.75-1.18-4.75-4.76,0,3.74-1.44,4.76-4.76,4.76,3.68,0,4.76,1.71,4.76,4.75C23.5,31.9,24.75,30.83,28.25,30.83Z"/><path d="M48.34,27.8c-5.79,0-8.16-2-8.16-8.16,0,6.4-2.46,8.16-8.16,8.16,6.32,0,8.16,2.94,8.16,8.15C40.18,29.64,42.33,27.8,48.34,27.8Z"/><path d="M16.63,12.61c-5.25,0-7.39-1.83-7.39-7.39,0,5.8-2.22,7.39-7.39,7.39,5.72,0,7.39,2.66,7.39,7.39C9.24,14.28,11.19,12.61,16.63,12.61Z"/><path d="M18.16,25c-3.06,0-4.31-1.06-4.31-4.31C13.85,24,12.55,25,9.53,25c3.34,0,4.32,1.56,4.32,4.32C13.85,26,15,25,18.16,25Z"/><path d="M26.8,17.3c-3.07,0-4.32-1.07-4.32-4.31,0,3.38-1.3,4.31-4.32,4.31,3.35,0,4.32,1.56,4.32,4.32C22.48,18.28,23.62,17.3,26.8,17.3Z"/><path d="M40.52,9.78c-3.51,0-5-1.22-5-4.95,0,3.89-1.49,4.95-4.95,4.95,3.83,0,4.95,1.79,4.95,5C35.57,10.9,36.88,9.78,40.52,9.78Z"/><path d="M32,19c-2.64,0-3.72-.92-3.72-3.72,0,2.92-1.12,3.72-3.71,3.72,2.87,0,3.71,1.34,3.71,3.71C28.25,19.83,29.23,19,32,19Z"/></svg>