<svg id="Layer_1" data-name="Layer 1" xmlns="http://www.w3.org/2000/svg" viewBox="0 0 50 50"><title>fullscreen</title><polygon points="44.13 5.87 34.99 5.87 34.99 0 50 0 50 15.38 44.13 15.38 44.13 12.36 44.13 5.87"/><polygon points="5.87 5.87 5.87 15.01 0 15.01 0 0 15.38 0 15.38 5.87 12.36 5.87 5.87 5.87"/><polygon points="5.87 44.13 15.01 44.13 15.01 50 0 50 0 34.62 5.87 34.62 5.87 37.64 5.87 44.13"/><polygon points="44.13 44.13 44.13 34.99 50 34.99 50 50 34.62 50 34.62 44.13 37.64 44.13 44.13 44.13"/></svg>