<svg id="Layer_1" data-name="Layer 1" xmlns="http://www.w3.org/2000/svg" viewBox="0 0 50 50"><title>settings</title><path d="M13,24.35V7A2,2,0,0,0,9,7V24.35A6,6,0,0,0,9,35.66V43a2,2,0,0,0,4,0V35.66a6,6,0,0,0,0-11.31ZM11,32a2,2,0,1,1,2-2A2,2,0,0,1,11,32Z"/><path d="M31,23a6,6,0,0,0-4-5.65V7a2,2,0,0,0-4,0V17.35a6,6,0,0,0,0,11.31,1.62,1.62,0,0,0,0,.22V43a2,2,0,0,0,4,0V28.88a1.62,1.62,0,0,0,0-.22A6,6,0,0,0,31,23Zm-6,2a2,2,0,1,1,2-2A2,2,0,0,1,25,25Z"/><path d="M40,12.35V7a2,2,0,0,0-4,0v5.35a6,6,0,0,0,0,11.3V43a2,2,0,0,0,4,0V23.65a6,6,0,0,0,0-11.3ZM38,20a2,2,0,1,1,2-2A2,2,0,0,1,38,20Z"/></svg>