<svg id="Image" xmlns="http://www.w3.org/2000/svg" viewBox="0 0 2000 2000"><defs><style>.cls-1{fill:#fff;}.cls-2{fill:#e6e6e6;}.cls-3{fill:#333;}.cls-4{fill:#c1272d;}</style></defs><title>sidey</title><polygon class="cls-1" points="803.69 1370.28 850 1378 820 1530 703 1530 712 1355 728.3 1357.72 750 978 848 1132 803.69 1370.28"/><path class="cls-1" d="M935,928c15.89,1.19,28.64,4.57,37,11a34.27,34.27,0,0,0-10,15l-12,134c-6.35,69.17-22,106.42-52,94V1019Z"/><path class="cls-1" d="M542.72,1233.63a4.31,4.31,0,0,1,1.16,3.24l-6.23,97a4.33,4.33,0,0,1-7.52,2.65L404.88,1199.21l-12-13.15a4.34,4.34,0,0,1-.78-4.63l29.29-68.34a4.33,4.33,0,0,1,7.14-1.25l3.81,4.07Z"/><path class="cls-1" d="M598.65,1164.62a4.32,4.32,0,0,1,1.23,3.3l-6.26,102a4.33,4.33,0,0,1-7.5,2.69L434.4,1109.69l-15.49-16.63a4.36,4.36,0,0,1-.82-4.65L447.47,1019a4.33,4.33,0,0,1,7.08-1.35l7.78,7.94Z"/><path class="cls-1" d="M651.68,1097.67a4.32,4.32,0,0,1,1.25,3.21l-3.56,99.82a4.33,4.33,0,0,1-7.47,2.83l-176.9-186-9.26-9.73a4.33,4.33,0,0,1-1-4.25l22.15-72.65a4.33,4.33,0,0,1,7.22-1.79l7.88,7.93Z"/><path class="cls-1" d="M701.63,1022.62a4.33,4.33,0,0,1,1.25,3.32l-6.26,98.28a4.33,4.33,0,0,1-7.44,2.74L495.43,926.84,485,916.05a4.31,4.31,0,0,1-.89-4.68L513.49,841a4.34,4.34,0,0,1,7.08-1.38L524,843Z"/><path class="cls-2" d="M870,659l28.34,4.9h0L898,690l-16,2v97l16-4v36l-16,22H730l-22-15V795l19,1,3-105H711V659l36-5-3,9.27h0c41.16,0,85.43.15,125.89.42Z"/><path class="cls-1" d="M936,659l76,6s-30.9-.38-76-.78Z"/><polygon class="cls-1" points="77 1349 152 1370 124 1517 39 1517 77 1349"/><polygon class="cls-1" points="284.11 859.83 344 893 243 1148 172.77 1122.79 284.11 859.83"/><polygon class="cls-1" points="450 480 485 536 458 604 390 611 450 480"/><polygon class="cls-1" points="497 466 651 456 527 513 497 466"/><polygon class="cls-1" points="722 507 711 457 724 447 724 400 772.84 400 771 447 783 457 769 508 722 507"/><polygon class="cls-1" points="882 567 882 590 735 590 734 584 717 583 717 565 719 565 882 567"/><path class="cls-3" d="M702.88,1025.94l-6.26,98.28a4.33,4.33,0,0,1-7.44,2.74L495.43,926.84,485,916.05a4.31,4.31,0,0,1-.89-4.68L513.49,841a4.34,4.34,0,0,1,7.08-1.38L524,843l177.68,179.58A4.33,4.33,0,0,1,702.88,1025.94Z"/><path class="cls-3" d="M652.93,1100.88l-3.56,99.82a4.33,4.33,0,0,1-7.47,2.83l-176.9-186-9.26-9.73a4.33,4.33,0,0,1-1-4.25l22.15-72.65a4.33,4.33,0,0,1,7.22-1.79l7.88,7.93,159.69,160.6A4.32,4.32,0,0,1,652.93,1100.88Z"/><path class="cls-3" d="M599.88,1167.92l-6.26,102a4.33,4.33,0,0,1-7.5,2.69L434.4,1109.69l-15.49-16.63a4.36,4.36,0,0,1-.82-4.65L447.47,1019a4.33,4.33,0,0,1,7.08-1.35l7.78,7.94,136.32,139A4.32,4.32,0,0,1,599.88,1167.92Z"/><path class="cls-3" d="M543.88,1236.87l-6.23,97a4.33,4.33,0,0,1-7.52,2.65L404.88,1199.21l-12-13.15a4.34,4.34,0,0,1-.78-4.63l29.29-68.34a4.33,4.33,0,0,1,7.14-1.25l3.81,4.07,110.38,117.72A4.31,4.31,0,0,1,543.88,1236.87Z"/><path class="cls-3" d="M1012,665s-30.9-.38-76-.78V659Z"/><polygon class="cls-3" points="882 567 882 590 735 590 734 584 717 583 717 565 719 565 882 567"/><polygon class="cls-3" points="898.34 663.9 898.34 663.91 898 690 882 692 882 789 898 785 898 821 882 843 730 843 708 828 708 795 727 796 730 691 711 691 711 659 747 654 744 663.27 744 663.28 739 828 866 828 869.89 663.7 870 659 898.34 663.9"/><path class="cls-4" d="M428.53,1111.84l3.81,4.07c-9.39,28.4-18.61,56.38-27.46,83.3l-12-13.15a4.34,4.34,0,0,1-.78-4.63l29.29-68.34A4.33,4.33,0,0,1,428.53,1111.84Z"/><path class="cls-4" d="M454.55,1017.64l7.78,7.94c-9.34,28-18.71,56.25-27.93,84.11l-15.49-16.63a4.36,4.36,0,0,1-.82-4.65L447.47,1019A4.33,4.33,0,0,1,454.55,1017.64Z"/><path class="cls-4" d="M484.11,929.14l7.88,7.93c-8.84,26.21-17.89,53.22-27,80.49l-9.26-9.73a4.33,4.33,0,0,1-1-4.25l22.15-72.65A4.33,4.33,0,0,1,484.11,929.14Z"/><path class="cls-4" d="M520.57,839.62,524,843c-9,26.31-18.62,54.5-28.52,83.8L485,916.05a4.31,4.31,0,0,1-.89-4.68L513.49,841A4.34,4.34,0,0,1,520.57,839.62Z"/><path class="cls-4" d="M711,659l36-5-3,9.27h0c-11.28,0-22.33,0-33,.07Z"/><polygon class="cls-4" points="735 590 734.5 587 882 587 882 590 735 590"/><path class="cls-4" d="M870,659l28.34,4.9h0c-9.2-.08-18.71-.15-28.45-.21Z"/><path class="cls-4" d="M1012,665s-30.9-.38-76-.78V659Z"/><polygon class="cls-3" points="651 456 527 513 497 466 651 456"/><polygon class="cls-3" points="485 536 458 604 390 611 450 480 485 536"/><polygon class="cls-3" points="344 893 243 1148 172.77 1122.79 165 1120 279 857 284.11 859.83 344 893"/><polygon class="cls-3" points="152 1370 124 1517 39 1517 77 1349 152 1370"/><polygon class="cls-3" points="783 457 769 508 722 507 711 457 724 447 724 400 727 396 773 396 772.84 400 771 447 783 457"/><path class="cls-3" d="M41,1530H635s2,49-27,49-559-8-559-8l-5-6Z"/><polygon class="cls-3" points="850 1378 820 1530 703 1530 712 1355 728.3 1357.72 750 978 848 1132 803.69 1370.28 850 1378"/><path class="cls-3" d="M972,939a34.27,34.27,0,0,0-10,15l-12,134c-6.35,69.17-22,106.42-52,94V1019l37-91C950.89,929.19,963.64,932.57,972,939Z"/><path class="cls-2" d="M1700,1447s-35.65-110.21-80.88-247.79l-125.25,137.26a4.33,4.33,0,0,1-7.52-2.65l-6.23-97a4.31,4.31,0,0,1,1.16-3.24l110.38-117.72c-.69-2.07-1.37-4.14-2.06-6.22l-151.72,162.92a4.33,4.33,0,0,1-7.5-2.69l-6.26-102a4.32,4.32,0,0,1,1.23-3.3l136.32-139-2.67-8-176.9,186a4.33,4.33,0,0,1-7.47-2.83l-3.56-99.82a4.32,4.32,0,0,1,1.25-3.21L1532,937.07q-1.73-5.15-3.44-10.23L1334.82,1127a4.33,4.33,0,0,1-7.44-2.74l-6.26-98.28a4.33,4.33,0,0,1,1.25-3.32L1500.05,843c-34.6-100.74-61.18-173.91-66-176-5.46-2.39-56.34-3.38-121-3.65V691h-19l3,105,19-1v33l-22,15H1142l-16-22V785l16,4V692l-16-2-.34-26.09c-13.31.09-26,.2-37.66.31V787l-19,19H955l-19-19V664.22c-11.69-.11-24.35-.22-37.66-.31L898,690l-16,2v97l16-4v36l-16,22H730l-22-15V795l19,1,3-105H711V663.35c-64.66.27-115.54,1.26-121,3.65-4.87,2.13-31.45,75.3-66,176l177.68,179.58a4.33,4.33,0,0,1,1.25,3.32l-6.26,98.28a4.33,4.33,0,0,1-7.44,2.74L495.43,926.84q-1.71,5.08-3.44,10.23l159.69,160.6a4.32,4.32,0,0,1,1.25,3.21l-3.56,99.82a4.33,4.33,0,0,1-7.47,2.83l-176.9-186-2.67,8,136.32,139a4.32,4.32,0,0,1,1.23,3.3l-6.26,102a4.33,4.33,0,0,1-7.5,2.69L434.4,1109.69c-.69,2.08-1.37,4.15-2.06,6.22l110.38,117.72a4.31,4.31,0,0,1,1.16,3.24l-6.23,97a4.33,4.33,0,0,1-7.52,2.65L404.88,1199.21C359.65,1336.79,324,1447,324,1447l-3,83H703l9-175,16.3,2.72L750,978l98,154-44.31,238.28L850,1378l-30,152h59l13-148,35-47,16-177h15l-1-1,9-120,11-4v-16l-8-4,3-64,18-14,10,12,12-1,12,1,10-12,18,14,3,64-8,4v16l11,4,9,120-1,1h15l16,177,35,47,13,148h59l-30-152,46.31-7.72L1176,1132l98-154,21.7,379.72L1312,1355l9,175h382ZM962,954l-12,134c-6.35,69.17-22,106.42-52,94V1019l37-91c15.89,1.19,28.64,4.57,37,11A34.27,34.27,0,0,0,962,954Zm164,228c-30,12.42-45.65-24.83-52-94l-12-134a34.27,34.27,0,0,0-10-15c8.36-6.43,21.11-9.81,37-11l37,91Zm24.27-189.5a14,14,0,0,1-4.07,9.3L1131,1017l-37-91.48a8.58,8.58,0,0,0-10.72-4.9l-33.94,11.57a10.46,10.46,0,0,1-4.87.45L1012,928l-32.51,4.64a10.46,10.46,0,0,1-4.87-.45l-33.94-11.57a8.58,8.58,0,0,0-10.72,4.9L893,1017l-15.2-15.2a14,14,0,0,1-4.07-9.3C870.28,910.59,891.84,856.05,955,847l57-4,57,4C1132.16,856.05,1153.72,910.59,1150.27,992.5Z"/><path class="cls-1" d="M1089,928l37,91v163c-30,12.42-45.65-24.83-52-94l-12-134a34.27,34.27,0,0,0-10-15C1060.36,932.57,1073.11,929.19,1089,928Z"/><polygon class="cls-1" points="1312 1355 1321 1530 1204 1530 1174 1378 1220.31 1370.28 1176 1132 1274 978 1295.7 1357.72 1312 1355"/><path class="cls-1" d="M1012,665l76-6v5.22C1042.9,664.62,1012,665,1012,665Z"/><path class="cls-2" d="M1297,796l19-1v33l-22,15H1142l-16-22V785l16,4V692l-16-2-.34-26.09h0L1154,659l.11,4.7c40.46-.27,84.73-.46,125.89-.42h0l-3-9.27,36,5v32h-19Z"/><path class="cls-1" d="M1528.57,926.84,1334.82,1127a4.33,4.33,0,0,1-7.44-2.74l-6.26-98.28a4.33,4.33,0,0,1,1.25-3.32L1500.05,843l3.38-3.42a4.34,4.34,0,0,1,7.08,1.38l29.39,70.37a4.31,4.31,0,0,1-.89,4.68Z"/><path class="cls-1" d="M1559,1017.56l-176.9,186a4.33,4.33,0,0,1-7.47-2.83l-3.56-99.82a4.32,4.32,0,0,1,1.25-3.21L1532,937.07l7.88-7.93a4.33,4.33,0,0,1,7.22,1.79l22.15,72.65a4.33,4.33,0,0,1-1,4.25Z"/><path class="cls-1" d="M1589.6,1109.69l-151.72,162.92a4.33,4.33,0,0,1-7.5-2.69l-6.26-102a4.32,4.32,0,0,1,1.23-3.3l136.32-139,7.78-7.94a4.33,4.33,0,0,1,7.08,1.35l29.38,69.42a4.36,4.36,0,0,1-.82,4.65Z"/><path class="cls-1" d="M1631.9,1181.43a4.34,4.34,0,0,1-.78,4.63l-12,13.15-125.25,137.26a4.33,4.33,0,0,1-7.52-2.65l-6.23-97a4.31,4.31,0,0,1,1.16-3.24l110.38-117.72,3.81-4.07a4.33,4.33,0,0,1,7.14,1.25Z"/><path class="cls-2" d="M1900,1517l-28-147,75-21-95.77-226.21L1781,1148,1680,893l59.89-33.17L1574,468l-5-40-239-18-30-10v47l13,10-11,50-47,1-14-51,12-10-1.84-47H1152l-15,17h-55v91H942V417H887l-15-17H772.84L771,447l12,10-14,51-47-1-11-50,13-10V400l-30,10L455,428l-5,40L284.11,859.83,344,893,243,1148l-70.23-25.21L77,1349l75,21-28,147H39v13H230l15-135L539,596l148-9h47.5l-.5-3-17-1V565h2l163,2v20h260V567l163-2h2v18l-17,1-.5,3H1337l148,9,294,799,15,135h191v-13ZM458,604l-68,7,60-131,35,56Zm69-91-30-47,154-10Zm970,0-124-57,154,10Zm69,91-27-68,35-56,60,131Z"/><polygon class="cls-1" points="1305 565 1307 565 1307 583 1290 584 1289 590 1142 590 1142 567 1305 565"/><polygon class="cls-1" points="1300 447 1313 457 1302 507 1255 508 1241 457 1253 447 1251.16 400 1300 400 1300 447"/><polygon class="cls-1" points="1373 456 1527 466 1497 513 1373 456"/><polygon class="cls-1" points="1574 480 1634 611 1566 604 1539 536 1574 480"/><polygon class="cls-1" points="1739.89 859.83 1851.23 1122.79 1781 1148 1680 893 1739.89 859.83"/><polygon class="cls-1" points="1985 1517 1900 1517 1872 1370 1947 1349 1985 1517"/><path class="cls-3" d="M1132,1382l-35-47-16-177h-15l-31,31H989l-31-31H943l-16,177-35,47-13,148h266Zm-86.77,4H978.77a4.76,4.76,0,0,1-4.47-6.37l33.23-92.21a4.75,4.75,0,0,1,8.94,0l33.23,92.21A4.76,4.76,0,0,1,1045.23,1386Z"/><path class="cls-3" d="M1539,916.05l-10.44,10.79L1334.82,1127a4.33,4.33,0,0,1-7.44-2.74l-6.26-98.28a4.33,4.33,0,0,1,1.25-3.32L1500.05,843l3.38-3.42a4.34,4.34,0,0,1,7.08,1.38l29.39,70.37A4.31,4.31,0,0,1,1539,916.05Z"/><path class="cls-3" d="M1568.26,1007.83l-9.26,9.73-176.9,186a4.33,4.33,0,0,1-7.47-2.83l-3.56-99.82a4.32,4.32,0,0,1,1.25-3.21L1532,937.07l7.88-7.93a4.33,4.33,0,0,1,7.22,1.79l22.15,72.65A4.33,4.33,0,0,1,1568.26,1007.83Z"/><path class="cls-3" d="M1605.09,1093.06l-15.49,16.63-151.72,162.92a4.33,4.33,0,0,1-7.5-2.69l-6.26-102a4.32,4.32,0,0,1,1.23-3.3l136.32-139,7.78-7.94a4.33,4.33,0,0,1,7.08,1.35l29.38,69.42A4.36,4.36,0,0,1,1605.09,1093.06Z"/><path class="cls-3" d="M1631.12,1186.06l-12,13.15-125.25,137.26a4.33,4.33,0,0,1-7.52-2.65l-6.23-97a4.31,4.31,0,0,1,1.16-3.24l110.38-117.72,3.81-4.07a4.33,4.33,0,0,1,7.14,1.25l29.29,68.34A4.34,4.34,0,0,1,1631.12,1186.06Z"/><path class="cls-3" d="M1088,664.22V787l-19,19H955l-19-19V664.22c45.1.4,76,.78,76,.78S1042.9,664.62,1088,664.22Z"/><path class="cls-3" d="M1088,659v5.22c-45.1.4-76,.78-76,.78Z"/><polygon class="cls-3" points="1307 565 1307 583 1290 584 1289 590 1142 590 1142 567 1305 565 1307 565"/><polygon class="cls-3" points="1316 795 1316 828 1294 843 1142 843 1126 821 1126 785 1142 789 1142 692 1126 690 1125.66 663.91 1125.66 663.9 1154 659 1154.11 663.7 1158 828 1285 828 1280 663.28 1280 663.27 1277 654 1313 659 1313 691 1294 691 1297 796 1316 795"/><path class="cls-4" d="M1794,1530h-91l-3-83s-35.65-110.21-80.88-247.79l12-13.15a4.34,4.34,0,0,0,.78-4.63l-29.29-68.34a4.33,4.33,0,0,0-7.14-1.25l-3.81,4.07c-.69-2.07-1.37-4.14-2.06-6.22l15.49-16.63a4.36,4.36,0,0,0,.82-4.65L1576.53,1019a4.33,4.33,0,0,0-7.08-1.35l-7.78,7.94-2.67-8,9.26-9.73a4.33,4.33,0,0,0,1-4.25l-22.15-72.65a4.33,4.33,0,0,0-7.22-1.79l-7.88,7.93q-1.73-5.15-3.44-10.23L1539,916.05a4.31,4.31,0,0,0,.89-4.68L1510.51,841a4.34,4.34,0,0,0-7.08-1.38l-3.38,3.42c-34.6-100.74-61.18-173.91-66-176-5.46-2.39-56.34-3.38-121-3.65V659l-36-5,3,9.27h0c-41.16,0-85.43.15-125.89.42L1154,659l-28.34,4.9h0c-13.31.09-26,.2-37.66.31V659l-76,6-76-6v5.22c-11.69-.11-24.35-.22-37.66-.31h0L870,659l-.11,4.7c-40.46-.27-84.73-.46-125.89-.42h0l3-9.27-36,5v4.35c-64.66.27-115.54,1.26-121,3.65-4.87,2.13-31.45,75.3-66,176l-3.38-3.42a4.34,4.34,0,0,0-7.08,1.38L484.1,911.37a4.31,4.31,0,0,0,.89,4.68l10.44,10.79q-1.71,5.08-3.44,10.23l-7.88-7.93a4.33,4.33,0,0,0-7.22,1.79l-22.15,72.65a4.33,4.33,0,0,0,1,4.25l9.26,9.73-2.67,8-7.78-7.94a4.33,4.33,0,0,0-7.08,1.35l-29.38,69.42a4.36,4.36,0,0,0,.82,4.65l15.49,16.63c-.69,2.08-1.37,4.15-2.06,6.22l-3.81-4.07a4.33,4.33,0,0,0-7.14,1.25l-29.29,68.34a4.34,4.34,0,0,0,.78,4.63l12,13.15C359.65,1336.79,324,1447,324,1447l-3,83H230l15-135L539,596l148-9h47.5l.5,3H882v-3h260v3h147l.5-3H1337l148,9,294,799Z"/><path class="cls-4" d="M1012,665l76-6v5.22C1042.9,664.62,1012,665,1012,665Z"/><path class="cls-4" d="M1154,659l.11,4.7c-9.74.06-19.25.13-28.45.21h0Z"/><polygon class="cls-4" points="1289 590 1142 590 1142 587 1289.5 587 1289 590"/><path class="cls-4" d="M1277,654l36,5v4.35c-10.67,0-21.72-.07-33-.07h0Z"/><path class="cls-4" d="M1539,916.05l-10.44,10.79c-9.9-29.3-19.48-57.49-28.52-83.8l3.38-3.42a4.34,4.34,0,0,1,7.08,1.38l29.39,70.37A4.31,4.31,0,0,1,1539,916.05Z"/><path class="cls-4" d="M1568.26,1007.83l-9.26,9.73c-9.1-27.27-18.15-54.28-27-80.49l7.88-7.93a4.33,4.33,0,0,1,7.22,1.79l22.15,72.65A4.33,4.33,0,0,1,1568.26,1007.83Z"/><path class="cls-4" d="M1605.09,1093.06l-15.49,16.63c-9.22-27.86-18.59-56.1-27.93-84.11l7.78-7.94a4.33,4.33,0,0,1,7.08,1.35l29.38,69.42A4.36,4.36,0,0,1,1605.09,1093.06Z"/><path class="cls-4" d="M1631.12,1186.06l-12,13.15c-8.85-26.92-18.07-54.9-27.46-83.3l3.81-4.07a4.33,4.33,0,0,1,7.14,1.25l29.29,68.34A4.34,4.34,0,0,1,1631.12,1186.06Z"/><polygon class="cls-3" points="1527 466 1497 513 1373 456 1527 466"/><polygon class="cls-3" points="1634 611 1566 604 1539 536 1574 480 1634 611"/><polygon class="cls-3" points="1859 1120 1851.23 1122.79 1781 1148 1680 893 1739.89 859.83 1745 857 1859 1120"/><polygon class="cls-3" points="1985 1517 1900 1517 1872 1370 1947 1349 1985 1517"/><polygon class="cls-3" points="1313 457 1302 507 1255 508 1241 457 1253 447 1251.16 400 1251 396 1297 396 1300 400 1300 447 1313 457"/><rect class="cls-3" x="942" y="417" width="140" height="91"/><path class="cls-3" d="M1983,1530H1389s-2,49,27,49,559-8,559-8l5-6Z"/><path class="cls-3" d="M1383,1530v35a22,22,0,0,1-22,22H663a22,22,0,0,1-22-22v-35Z"/><path class="cls-2" d="M1045.23,1386H978.77a4.76,4.76,0,0,1-4.47-6.37l33.23-92.21a4.75,4.75,0,0,1,8.94,0l33.23,92.21A4.76,4.76,0,0,1,1045.23,1386Z"/><polygon class="cls-3" points="1321 1530 1204 1530 1174 1378 1220.31 1370.28 1176 1132 1274 978 1295.7 1357.72 1312 1355 1321 1530"/><path class="cls-3" d="M1126,1019v163c-30,12.42-45.65-24.83-52-94l-12-134a34.27,34.27,0,0,0-10-15c8.36-6.43,21.11-9.81,37-11Z"/><path class="cls-3" d="M1150.27,992.5a14,14,0,0,1-4.07,9.3L1131,1017l-37-91.48a8.58,8.58,0,0,0-10.72-4.9l-33.94,11.57a10.46,10.46,0,0,1-4.87.45L1012,928l-32.51,4.64a10.46,10.46,0,0,1-4.87-.45l-33.94-11.57a8.58,8.58,0,0,0-10.72,4.9L893,1017l-15.2-15.2a14,14,0,0,1-4.07-9.3C870.28,910.59,891.84,856.05,955,847l57-4,57,4C1132.16,856.05,1153.72,910.59,1150.27,992.5Z"/><polygon class="cls-3" points="1067 1157 1035 1189 989 1189 957 1157 966 1037 977 1033 977 1017 969 1013 972 949 990 935 1000 947 1012 946 1024 947 1034 935 1052 949 1055 1013 1047 1017 1047 1033 1058 1037 1067 1157"/></svg>