<svg id="Layer_1" data-name="Layer 1" xmlns="http://www.w3.org/2000/svg" viewBox="0 0 100 120"><defs><style>.cls-1{fill:#0071bc;}.cls-2{fill:#fff;}</style></defs><title>expedition_finish</title><rect x="6.82" y="6.86" width="86.36" height="86.96"/><path class="cls-1" d="M0,0V100.69H38.91L50,120l11.09-19.31H100V0ZM93.18,93.82H6.82v-87H93.18Z"/><rect class="cls-2" x="9.38" y="26.71" width="10.16" height="10.16"/><rect class="cls-2" x="19.53" y="36.86" width="10.16" height="10.16"/><rect class="cls-2" x="9.38" y="47.02" width="10.16" height="10.16"/><rect class="cls-2" x="19.53" y="57.18" width="10.16" height="10.16"/><rect class="cls-2" x="29.69" y="26.71" width="10.16" height="10.16"/><rect class="cls-2" x="39.84" y="36.86" width="10.16" height="10.16"/><rect class="cls-2" x="29.69" y="47.02" width="10.16" height="10.16"/><rect class="cls-2" x="39.84" y="57.18" width="10.16" height="10.16"/><rect class="cls-2" x="50" y="26.71" width="10.16" height="10.16"/><rect class="cls-2" x="60.16" y="36.86" width="10.16" height="10.16"/><rect class="cls-2" x="50" y="47.02" width="10.16" height="10.16"/><rect class="cls-2" x="60.16" y="57.18" width="10.16" height="10.16"/><rect class="cls-2" x="70.31" y="26.71" width="10.16" height="10.16"/><rect class="cls-2" x="80.47" y="36.86" width="10.16" height="10.16"/><rect class="cls-2" x="70.31" y="47.02" width="10.16" height="10.16"/><rect class="cls-2" x="80.47" y="57.18" width="10.16" height="10.16"/></svg>