<svg id="Layer_1" data-name="Layer 1" xmlns="http://www.w3.org/2000/svg" viewBox="0 0 1000 1000"><defs><style>.cls-1{fill:#333;}</style></defs><title>Artboard 1</title><path class="cls-1" d="M115.92,289.9c30.58-57,76.52-95.33,160.08-88,0,0,49.76-10.46,69.95-.9s64.9,26.14,72.83,30.46,5.05,7.22,18.75,17.31S461.32,266.11,474.3,269s28.85,5.77,33.17,14.42c28.12,4.33,34.61-.72,60.57,2.17s33.23,5.77,64.57,20.19,41.43,17.3,69.56,53.36,41.82,62,51.2,83.64,17.3,31,28.84,44,52.64,22.36,67.78,72.83,25.24,169.68,15.87,190.84S840.62,794,802.4,799.76,721,806.21,686,789.62,604.82,757.17,583.19,755s-34.62,0-48.32-10.1S506,717.79,506,717.79s-80.76-9.65-113.21-7.49S330.63,701,321,688,303.4,667,288.26,657.66,252.2,644,236.34,632.42s-26.68-17.3-44-38.22S157.74,571.4,157,543.14s-16.58-41.24-25.24-61.43-23.79-43.26-26-82.92S108.16,303.38,115.92,289.9Z"/></svg>