<svg id="Layer_1" data-name="Layer 1" xmlns="http://www.w3.org/2000/svg" viewBox="0 0 1000 1000"><defs><style>.cls-1{fill:#333;}</style></defs><title>Artboard 3</title><path class="cls-1" d="M165.65,722.88c-12.34-9-63.23-57.38-36.3-98.77s50.8-68.56,46.32-106.42-28.33-96.55,0-128.34,32.81-66.64,47.72-82.76,40.26-43.95,58.15-42.71,13.53-13.78,53,14.6,43.93,63.89,41,77.45-4.48,28.19,29.82,41,89.81,4.54,89.81,4.54,33.95-19.11,74.21-12.13,56,20.46,89.87,27.88,78.62,14.63,68.18,34.14S695.56,498.3,683.88,504,606,519.55,600.33,522.8s-12.42,4.59-9.79,18.83,26.49,28.52,25,58.66,7.46,62.33-3,81.27-15.9,26.41-31.81,41.32-73.36,47.71-85.64,65.6-36.48,51.07-69.85,49.4-73.53-11.56-90.73-23-36.59-.47-63.43,0S215.93,798,201,782.05,165.65,722.88,165.65,722.88Z"/></svg>