<svg id="Layer_1" data-name="Layer 1" xmlns="http://www.w3.org/2000/svg" viewBox="0 0 1000 1000"><defs><style>.cls-1{fill:#333;}</style></defs><title>Artboard 4</title><path class="cls-1" d="M366.12,872.77c-52.52,3.76-127.55-11.25-146.31-20.63s-46.9-22.51-63.78-46.9-3.75-31.23,9.38-71.89,53.08-56.62,64.52-84.91,15.76-75.28,21.58-84.92-43.37,7.24-43.16-71.54-7.71-105,0-133.19,37.34-73.15,43.16-93.79,3.94-43.14,30.2-60-30-48.78,84.41-46.9,121,28.14,172.09,56.27,47.39,54.4,17.37,86.29-82.53,28.14-41.27,61.91,58.16,15,106.93,43.14,77.1,35.64,79.82,80.66-21.67,76.57-32.93,136.77-15,99.59-37.51,124-30,18.76-45,50.65-1.87,53.7-28.13,75.62-69.41,48.19-82.54,59.44-76.91,9.38-99.42-1.88S366.12,872.77,366.12,872.77Z"/></svg>