<svg id="Layer_1" data-name="Layer 1" xmlns="http://www.w3.org/2000/svg" viewBox="0 0 100 120"><defs><style>.cls-1{fill:#ffeb00;}</style></defs><title>communitygoal</title><rect x="6.82" y="6.86" width="86.36" height="86.96"/><path class="cls-1" d="M0,0V100.69H38.91L50,120l11.09-19.31H100V0ZM93.18,93.82H6.82v-87H93.18Z"/><path class="cls-1" d="M36.77,61.82l-6.91,13a2.69,2.69,0,0,1-4.93-.43L17,50a2.69,2.69,0,0,1,3.73-3.25L34,53.22A6.27,6.27,0,0,1,36.77,61.82Z"/><path class="cls-1" d="M37.62,42,21.94,39.25a2.69,2.69,0,0,1-1.11-4.83l22.07-16a2.69,2.69,0,0,1,4.24,2.55L44.93,36.7A6.28,6.28,0,0,1,37.62,42Z"/><path class="cls-1" d="M55.34,68.74l9.19,9.51a2.69,2.69,0,0,1-1.94,4.56H39.05a2.69,2.69,0,0,1-1.94-4.56l9.19-9.51A6.26,6.26,0,0,1,55.34,68.74Z"/><path class="cls-1" d="M56.71,36.7l-2.11-15a2.69,2.69,0,0,1,4.25-2.55L80.07,34.55A2.69,2.69,0,0,1,79,39.38L64,42A6.29,6.29,0,0,1,56.71,36.7Z"/><path class="cls-1" d="M83.54,50.55,76.15,73.31a2.69,2.69,0,0,1-4.94.43L64.87,61.82a6.28,6.28,0,0,1,2.79-8.6L79.81,47.3A2.69,2.69,0,0,1,83.54,50.55Z"/></svg>