<svg id="Layer_1" data-name="Layer 1" xmlns="http://www.w3.org/2000/svg" viewBox="0 0 100 120"><defs><style>.cls-1{fill:#0071bc;}</style></defs><title>expedition_waypoint</title><rect x="6.82" y="6.86" width="86.36" height="86.96"/><path class="cls-1" d="M0,0V100.69H38.91L50,120l11.09-19.31H100V0ZM93.18,93.82H6.82v-87H93.18Z"/><path class="cls-1" d="M72.45,41a10.79,10.79,0,0,0-2.86.38l-7.32-9.53a7.35,7.35,0,0,0,1-3.69,7.43,7.43,0,1,0-7.43,7.43,7,7,0,0,0,1.6-.18l7,9.1A10.9,10.9,0,0,0,61.49,52c0,.27,0,.53,0,.79L43.76,59.17a14.49,14.49,0,1,0,1.82,7c0-.43,0-.85,0-1.28l18.06-6.51A11,11,0,1,0,72.45,41Zm-18-12.84a1.42,1.42,0,0,1,2.83,0,1.42,1.42,0,1,1-2.83,0ZM31.09,74.68a8.49,8.49,0,1,1,8.48-8.48A8.49,8.49,0,0,1,31.09,74.68ZM72.45,56.92a5,5,0,1,1,5-5A5,5,0,0,1,72.45,56.92Z"/></svg>