<svg id="Layer_1" data-name="Layer 1" xmlns="http://www.w3.org/2000/svg" viewBox="0 0 1000 1000"><defs><style>.cls-1{fill:#1a1a1a;}</style></defs><title>Artboard 19</title><path class="cls-1" d="M-.13,429.69s34.28-86.17,89.14-105,83.81-36,111.33-22.29,87.51,3.81,113.23-4.95,42.85-31.05,120-36.19,80.57-10.28,144-6.86,73.71,12,109.71,32.57,66.85,37.72,113.14,65.15,51.42,30.06,41.14,77.59-13.76,80.1-53.9,93.83-102.1,60-167.24,70.28S503.85,621.23,437,616.09s-123.42,8.57-183.42-12-42.86-12-113.14-34.29S75.29,559.52,41,523.52-.13,429.69-.13,429.69Z"/></svg>